<svg id="Layer_1" data-name="Layer 1" xmlns="http://www.w3.org/2000/svg" viewBox="0 0 200 200"><defs><style>.cls-1{fill:#fff;}.cls-2{fill:#39b54a;}</style></defs><title>Status</title><circle class="cls-1" cx="100" cy="100" r="100"/><path class="cls-2" d="M50.6,14.19a7,7,0,0,0-3.72,1.07q-2.24,1.4-4.38,2.91h0l-.71.51h0l-1.07.77h0a100.39,100.39,0,0,0-15.18,13.8A7,7,0,0,0,36,42.6,86.47,86.47,0,0,1,54.33,27.11,7,7,0,0,0,50.6,14.19ZM16.28,52.46A7,7,0,0,0,10,56.41c-.44.92-.88,1.85-1.3,2.79h0l0,0h0l0,.1h0l0,.1h0l0,0h0l0,0h0l0,0h0l0,0h0l0,0h0l0,0h0l0,0h0l0,0h0l0,0h0l0,0h0l0,.09h0l0,0h0l0,0h0l0,0h0l0,.05h0v.1l0,0v0l0,0h0l0,.05h0l0,0h0l0,.05h0v.09H8v.06l0,0H8l0,0v0l0,0h0l0,0V61h0v.1l0,0v.07l0,0v.12l0,0v.29l0,0v.1h0l0,0h0v0h0l0,.06h0v0l0,.09h0v.13h0l0,.07h0v0h0l0,.09h0v0h0l0,.06h0v0h0l0,.1h0l0,.1h0v0h0l0,.06h0l0,0h0l0,.1H7l0,.1H7v0H7l0,0h0l0,0h0l0,.1h0l0,.1h0v0h0l0,.1h0l0,.1h0l0,.14h0l0,.11h0l0,.1h0l0,.14h0l0,.1h0l0,.1h0l-.06.14h0a1.8,1.8,0,0,1-.08.21h0v0h0l0,.1h0l-.09.24h0l0,.1h0l0,.09h0l0,0h0l0,.06h0v0h0l0,.1H6l0,.11H6l0,0H6c0,.07,0,.14-.07.21h0l-.06.14h0l0,.11h0l0,.11h0l0,.14h0l0,.1h0l0,.1h0v0h0l0,.07h0v0h0l0,.1h0l0,.1h0l0,.14h0l0,.11h0c0,.08,0,.16-.08.25h0l0,.11h0l0,.1h0v0h0l0,.1h0l0,.11h0v0h0l0,.11h0l0,.1h0l0,.1h0v0H5l0,.11H5l0,.1H5v0H5l0,.07h0v0h0l0,.1h0l0,.1h0l0,.14h0l0,.11h0l0,.11h0v0h0l0,.07h0v0h0l0,.1h0v0h0l0,.07h0v0h0l0,.06h0v0h0l0,.1h0v0h0l0,0v.06l0,.06h0v0l0,.09h0v0h0l0,.06h0v0h0l0,.1h0l0,.1h0v0h0l0,.06h0v0h0l0,.1h0v0h0l0,.07h0v0h0l0,.06h0v0h0v.1h0v0h0l0,.06h0v0h0l0,.06h0v0H4l0,.11H4L4,72H4v0H4l0,.1h0l0,.1h0l0,.1h0v0h0l0,.1h0l0,.11h0v0h0l0,.11h0l0,.1h0v0h0l0,.07h0v0h0l0,.1h0l0,.1h0v0h0l0,.07h0v0h0l0,.1h0l0,.1h0v0h0l0,.07h0v0h0l0,.1h0l0,.11h0v0h0l0,.07h0v0h0l0,.11h0l0,.15h0l0,.11h0l0,.11h0l0,.14h0l0,.1h0l0,.1h0l0,.15h0Q2.12,79,1.44,83a7,7,0,0,0,5.72,8.07,8.07,8.07,0,0,0,1.19.1,7,7,0,0,0,6.89-5.82,85.3,85.3,0,0,1,7.33-22.83,7,7,0,0,0-6.29-10.06ZM7.55,103.13a6.56,6.56,0,0,0-.76,0,7,7,0,0,0-6.2,7.71c.18,1.7.41,3.39.68,5.07h0v.11h0l0,.11h0v0h0v0h0v0h0v0h0v0h0v0h0v0h0v.4h0v.15h0v0h0v.07h0v0h0l0,.11h0a99.82,99.82,0,0,0,4.82,17.7h0l0,.1h0l0,0h0l0,.1h0v0h0l0,.06h0v.43l0,0v0l0,0v0l0,0h0l0,0h0v0h0l0,.05h0v0h0l0,0h0v0h0l0,.09h0c.19.5.39,1,.6,1.49a7,7,0,0,0,13-5.31,85.38,85.38,0,0,1-5.9-23.24,7,7,0,0,0-6.95-6.25ZM27,150.67A7,7,0,0,0,21.53,162a99.16,99.16,0,0,0,7.39,8.34h0l.07.08h0l.07.07h0l.07.07h0l0,0,0,0,0,0h0l0,0,0,0,0,0,0,0,0,0,0,0h0l0,0v0h0l0,0,0,0h0l0,0v0l0,0h0l0,0h0l0,0h0l0,0h0l0,0h0l0,0h0l0,0h0l0,0h0l0,0h0l0,0h0l0,0h0l0,0h0l0,0h0l.07.07h0l.07.07h0l.08.08h0l.08.07h0a101.06,101.06,0,0,0,11.4,9.54,7,7,0,0,0,8.17-11.38,86.2,86.2,0,0,1-17.38-16.58,7,7,0,0,0-5.5-2.66Zm41.78,30a7,7,0,0,0-2.35,13.6,99.54,99.54,0,0,0,27.35,5.57h.43a7,7,0,0,0,.42-14,85.72,85.72,0,0,1-23.5-4.79,6.93,6.93,0,0,0-2.35-.41Zm75.61-5.92a7,7,0,0,0-3.34.86,85.41,85.41,0,0,1-22.46,8.4,7,7,0,0,0,3,13.68,99,99,0,0,0,9.73-2.67h0l.36-.12h0l.25-.09h0l.11,0h0l.1,0h0l.07,0h.05l.09,0h0l.1,0h.05l0,0h.06l.05,0h.06l.09,0h.53l0,0H134l0,0h0l0,0h0l0,0h.21l0,0h0l0,0h0l0,0h0l0,0h.06l.05,0h.2l.05,0h0l0,0h0l0,0h0l0,0h0l0,0h0l0,0h0l.09,0h.16l.09,0h0l.1,0h0l0,0h0l.05,0h0l.05,0h0l.1,0h0l.1,0h0l.15-.06h0l.1,0h0l.1,0h0c2.65-1,5.23-2.17,7.76-3.41h0l.44-.21h0l.05,0h0l0,0h0l0,0h0l0,0h0l.05,0h0l.09-.05h0l0,0h0l0,0h0l0,0h0l.05,0h0l0,0h0l.09,0h.06l0,0h0l0,0h0l.05,0h0l0,0h0l.09,0h0l0,0h0l0,0h.05l0,0h.06l0,0h.07l0,0h0l0,0h0l0,0h0l0,0h.08l0,0h.06l0,0h.09l.05,0h0l0,0h0l0,0h0l0,0h0l0,0h0l.1,0h0l.1,0h0l0,0h0l.2-.1h0l.64-.35a7,7,0,0,0-3.36-13.15Zm36.64-36.09a7,7,0,0,0-6.1,3.57,86.36,86.36,0,0,1-14.6,19.06,7,7,0,0,0,9.81,10,103,103,0,0,0,7-7.64h0a101.3,101.3,0,0,0,10-14.55,7,7,0,0,0-6.1-10.43Zm11.84-50h-.33a7,7,0,0,0-6.66,7.31c.06,1.35.09,2.71.09,4.06a86.41,86.41,0,0,1-2.3,19.87,7,7,0,0,0,5.2,8.42,6.89,6.89,0,0,0,1.62.19,7,7,0,0,0,6.8-5.37q.84-3.58,1.43-7.26h0v0h0l0-.19h0v0h0v0h0v0h0l0-.19h0v-.11h0v0h0v-.27h0v0h0v-.18h0v-.42h0v-.09h0v0h0V114h0v-.08h0v0h0v0h0v-.08h0v0h0v-.09h0v0h0v-.08h0v0h0l0-.13h0v0h0v0h0v0h0v0h0l0-.18h0v0h0l0-.27h0v0h0l0-.23h0v0h0c0-.08,0-.17,0-.26h0v0h0v0h0l0-.17h0v0h0c0-.11,0-.21,0-.32h0l0-.31h0c.17-1.48.3-3,.4-4.46h0v0h0a2.45,2.45,0,0,1,0-.27h0v0h0v-.18h0v0h0v0h0v0h0v0h0v-.14h0v0h0v0h0c0-.09,0-.18,0-.27h0c0-.13,0-.25,0-.37h0v-.18h0v0h0v0h0v-.23h0v0h0v0h0v0h0v-.13h0v0h0v0h0v0h0v-.17h0v0h0v0h0v0h0v-.13h0v0h0v0h0v0h0v0h0v-.09h0v0h0v0h0v0h0v0h0v0h0V103h0v0h0v0h0v0h0v0h0v0h0v-.09h0v0h0v-.08h0v0h0v-.09h0v0h0v-.08h0v0h0v0h0v0h0v0h0v0h0v0h0v0h0v0h0v0h0v0h0v0h0v-.08h0v-.08h0v-.18h0v-.08h0v0h0v0h0v-.26h0v-.09h0v-.17h0v0h0v-.13h0v-.13h0v0h0v-.08h0v-.08h0V100h0v-.07h0v-.06h0v-.07h0v-.06h0v-.07h0v-.07h0v-.07h0v-.14h0v-.07h0V99h0V99h0v-.07h0c0-1.2,0-2.4-.1-3.6a7,7,0,0,0-7-6.67ZM176.39,40a7,7,0,0,0-5.74,11,85.87,85.87,0,0,1,10.82,21.41,7,7,0,1,0,13.26-4.49v0h0l0-.06h0v0h0l0-.06h0v0h0l0-.09v-.05h0v-.22l0,0v0h0v-.38h0l0,0v-.07l0,0v-.26h0l0,0v0l0,0v-.11h0V66l0,0h0l0,0h0l0,0h0l0,0h0v0h0v0h0v0h0l0,0h0l0,0h0l0-.09v0l0,0h0l0-.05h0v0h0l0,0h0v0h0v0h0v0h0l0-.09h0v0h0l0,0h0l0,0h0l0,0h0l0,0h0l0,0h0l0,0h0l0,0h0l0-.05h0l0,0h0l0,0h0v0h0l0,0h0v0h0l0-.09h0l0-.1h0v0h0l0,0h0v0h0v0h0v0h0l0-.1h0l0-.1h0a2.77,2.77,0,0,1-.1-.26h0l0-.1h0l0-.1h0l-.1-.25h0l0-.1h0l0-.1h0c0-.09-.07-.17-.1-.26h0l0-.1h0c-1-2.44-2.09-4.84-3.27-7.18h0l-.07-.15h0l-.05-.1h0l0-.09h0c0-.08-.08-.16-.13-.24h0l-.05-.1h0l-.17-.34h0l-.18-.33h0l-.05-.09h0l0-.1h0l-.05-.09h0l-.05-.09h0l0,0h0l0-.05h0l0,0h0l-.05-.09h0l0-.09h0l0,0h0l0,0h0l0,0h0l-.05-.1h0l0-.09h0l0,0h0l0,0h0l0,0h0l0,0h0l0,0h0l0,0h0l0,0h0l-.05-.09h0l0,0h0l0,0h0l0,0h0l0,0h0l0,0h0l0,0h0l0,0h0l0-.08h0l0,0h0l0,0h0v0h0l0,0v0l0,0h0l0,0h0l0,0v0l0,0h0l0,0h0l0,0h0l0,0h0l0,0h0l0,0v-.06l0,0h0l0,0v0h0l0,0v0l0,0v0l0,0v-.05h0l0,0h0l0,0v0l0,0,0,0V50.6l0,0v0l0,0v0l0,0v-.06l0,0,0,0h0v0h0l0,0v0l0,0,0,0v-.06l0,0v0l0,0h0v0h0l0-.05h0l0,0v0l0,0h0v0h0l0,0h0l0,0v0l-.05-.08h0l-.05-.09h0v0h0l0,0h0l0,0h0l-.06-.09h0l-.06-.09h0l-.05-.1h0l-.08-.13h0q-1.83-3.06-3.85-6a7,7,0,0,0-5.75-3ZM136.56,7.46a7,7,0,0,0-2.76,13.43,86,86,0,0,1,20.53,12.44,7,7,0,1,0,8.85-10.85c-.87-.71-1.76-1.41-2.65-2.09h0l0,0h0l0,0h0l0,0h0l0,0h0l-.08-.06h0l0,0h0l0,0h0l0,0h0l0,0h0l0,0h0l0,0h0l0,0h0l0,0,0,0h0l0,0h0l0,0,0,0,0,0h0l-.08-.06h0l-.09-.06h0A99.59,99.59,0,0,0,139.29,8a6.94,6.94,0,0,0-2.73-.55ZM100,0H93.31L93,.24h-.11A99,99,0,0,0,72.36,3.87,7,7,0,0,0,74.29,17.6a7.13,7.13,0,0,0,1.93-.27A86.06,86.06,0,0,1,100,14h0a87.87,87.87,0,0,1,10.65.65,6.29,6.29,0,0,0,.86,0A7,7,0,0,0,112.36.76l-.19,0h0l-.19,0h-1l-.14,0h-.28l-.2,0h0c-2.47-.25-5-.42-7.47-.49H100Z"/></svg>